<?xml version="1.0" encoding="utf-8"?>
<!-- Generator: Adobe Illustrator 24.3.0, SVG Export Plug-In . SVG Version: 6.00 Build 0)  -->
<svg version="1.1" id="Calque_1" xmlns="http://www.w3.org/2000/svg" xmlns:xlink="http://www.w3.org/1999/xlink" x="0px" y="0px"
	 viewBox="0 0 2495.66 1095.31" style="enable-background:new 0 0 2495.66 1095.31;" xml:space="preserve">
<style type="text/css">
	.st0{fill:#CBF801;}
	.st1{fill:none;stroke:#000000;stroke-width:28.3465;stroke-miterlimit:10;}
	.st2{fill:#FFFFFF;}
	.st3{fill:#FFFFFF;stroke:#000000;stroke-width:28.3465;stroke-miterlimit:10;}
	.st4{fill:#EE403D;}
	.st5{fill:#F15A24;}
	.st6{fill:#FEFAFA;}
	.st7{fill:#FEFCFC;}
	.st8{fill:#FEFBFB;}
	.st9{fill:#FEF8F8;}
	.st10{fill:#FDF0F0;}
	.st11{fill:#FEF9F9;}
	.st12{fill:#FDF4F4;}
	.st13{fill:#FDF5F4;}
	.st14{fill:#FDF2F2;}
	.st15{fill:#FDF3F3;}
	.st16{fill:#FDF1F1;}
	.st17{fill:#FCEEED;}
	.st18{fill:#EF4E4C;}
	.st19{fill:#FCECEC;}
	.st20{fill:#EF4543;}
	.st21{fill:#EE4340;}
	.st22{fill:#EE4441;}
	.st23{fill:#EF4744;}
	.st24{fill:#F06260;}
	.st25{fill:#F0524F;}
	.st26{fill:#EF4D4A;}
	.st27{fill:#EF4C4A;}
	.st28{fill:#0B0C09;}
	.st29{fill:#E9E9E8;}
	.st30{clip-path:url(#SVGID_2_);}
	.st31{opacity:0.5;fill:#FFFFFF;}
	.st32{clip-path:url(#SVGID_6_);}
	.st33{clip-path:url(#SVGID_10_);}
	.st34{clip-path:url(#SVGID_14_);}
	.st35{clip-path:url(#SVGID_18_);}
	.st36{clip-path:url(#SVGID_22_);}
	.st37{clip-path:url(#SVGID_26_);}
	.st38{clip-path:url(#SVGID_30_);}
	.st39{clip-path:url(#SVGID_34_);}
	.st40{clip-path:url(#SVGID_38_);}
</style>
<g>
	<g>
		<polygon class="st2" points="2402.38,690.54 2402.43,787.27 2495.66,779.15 2495.61,682.42 		"/>
		<polyline class="st2" points="2255.99,823.56 2352.5,810.77 2352.5,624.25 2470.21,615.85 2489.83,341.62 2490.81,0 53.24,207.54 
			53.68,1090.73 2255.06,901.35 2255.99,823.56 		"/>
	</g>
	<g>
		<path d="M159.7,438.11l201.44-17.15l0.04,67.83l-130.5,11.11l0.07,132.27l103.72-8.83l0.04,67.83l-103.72,8.83l0.07,139.06
			l130.5-11.11l0.04,67.83l-201.44,17.15L159.7,438.11z"/>
		<path d="M420.69,415.89l78.3-6.67l90.51,311.12l-0.17-318.81l69.6-5.93l0.26,474.83l-74.95,6.38L490.39,580.9l0.16,303.89
			l-69.6,5.93L420.69,415.89z"/>
		<path d="M736.55,388.99l70.94-6.04l0.26,474.83l-70.94,6.04L736.55,388.99z"/>
		<path d="M1112.64,356.97l-77.37,481.44l-95.03,8.09l-77.88-468.22l72.27-6.15l53.74,368.52l53.33-377.64L1112.64,356.97z"/>
		<path d="M1167.51,352.3l201.44-17.15l0.04,67.83l-130.5,11.11l0.07,132.27l103.72-8.83l0.04,67.83l-103.72,8.83l0.07,139.06
			l130.5-11.11l0.04,67.83l-201.44,17.15L1167.51,352.3z"/>
		<path d="M1428.51,330.08l78.3-6.67l90.51,311.12l-0.17-318.81l69.6-5.93l0.26,474.83l-74.95,6.38l-93.85-295.91l0.16,303.89
			l-69.6,5.93L1428.51,330.08z"/>
		<path d="M1721.62,305.12l226.19-19.26l0.04,67.83l-77.63,6.61l0.22,407l-70.94,6.04l-0.22-407l-77.63,6.61L1721.62,305.12z"/>
		<path d="M2041.08,744.64c-17.41-8.46-30.91-21.11-40.51-37.93c-9.61-16.82-14.41-36.53-14.42-59.15l-0.01-16.96l68.25-13.27
			l0.01,17.64c0.01,17.19,4.03,30.42,12.07,39.67c8.04,9.27,19.19,13.29,33.47,12.07c13.82-1.18,24.86-6.19,33.12-15.03
			c8.25-8.84,12.37-20.27,12.36-34.3c-0.01-15.36-4.36-29.7-13.07-42.98c-8.71-13.27-26.01-31.25-51.9-53.92
			c-34.82-30.5-58.59-56.29-71.32-77.37c-12.73-21.07-19.1-44.72-19.11-70.95c-0.02-35.72,9.56-64.92,28.73-87.58
			c19.16-22.66,45.49-35.42,78.95-38.27c33.46-2.85,59.79,5.54,78.98,25.16c19.19,19.62,28.8,47.3,28.82,83.02l0.01,12.21
			l-68.25,13.27l-0.01-13.57c-0.01-18.08-3.37-31.59-10.06-40.52c-6.7-8.92-16.3-12.86-28.79-11.79
			c-12.49,1.06-22.08,5.73-28.77,13.98c-6.69,8.26-10.03,19.84-10.02,34.77c0.01,14.92,4.47,28.91,13.41,41.94
			c8.93,13.04,26.12,31.35,51.56,54.96c34.82,32.31,58.59,58.67,71.32,79.06c12.73,20.4,19.09,43.49,19.11,69.26
			c0.01,22.62-4.77,43.14-14.35,61.6c-9.59,18.45-23.07,33.4-40.46,44.83c-17.39,11.42-37.25,18.1-59.55,19.99
			C2078.33,756.39,2058.48,753.1,2041.08,744.64z"/>
		<g>
			<polygon points="2332.44,756.37 2332.49,853.1 2425.72,844.98 2425.67,748.25 			"/>
			<polygon points="2437.57,65.83 0,273.37 0.44,1095.31 2272.6,900.37 2273.52,822.57 79.31,1009.39 78.95,345.85 2319.93,155.05 
				2320.06,354.33 2340.03,625.8 2416.98,620.44 2436.59,346.2 			"/>
		</g>
	</g>
</g>
</svg>
